# Blender v2.90.1 OBJ File: 'couch.blend'
# www.blender.org
o Cube_Cube.002
v -0.631658 -0.126906 1.691147
v -0.631658 0.205430 1.691147
v -0.631658 -0.126906 -1.691147
v -0.631658 0.205430 -1.691147
v 0.379029 -0.126906 1.691147
v 0.379029 0.205430 1.691147
v 0.379029 -0.126906 -1.691147
v 0.379029 0.205430 -1.691147
v -0.631658 0.205430 1.691147
v 0.379029 0.188786 1.691147
v -0.631658 0.572617 1.691147
v 0.379029 0.572617 1.691147
v -0.631658 0.572617 1.440892
v 0.379029 0.572617 1.440892
v -0.631658 0.195567 1.440892
v 0.379029 0.195567 1.440892
v -0.631658 0.572617 -1.439158
v 0.379029 0.572617 -1.439158
v -0.631658 0.572617 -1.689413
v 0.379029 0.572617 -1.689413
v -0.631658 0.179431 -1.439158
v 0.379029 0.190833 -1.439158
v -0.631658 0.572617 -1.689413
v -0.631658 0.572617 1.691147
v -0.631658 0.572617 -1.689413
v -0.631658 0.572617 1.691147
v -0.631658 0.572617 -1.689413
v -0.631658 0.934770 1.691147
v -0.631658 0.934770 -1.689413
v -0.631658 0.934770 1.691147
v -0.631658 0.934770 -1.689413
v -0.406291 0.934770 1.691147
v -0.406291 0.934770 -1.689413
v -0.284131 0.173683 1.691147
v -0.284131 0.173683 -1.689413
v -0.593811 0.964134 1.651629
v -0.444138 0.964134 1.651629
v -0.593811 0.964134 -1.649895
v -0.444138 0.964134 -1.649895
v -0.611790 0.601280 1.665042
v -0.611790 0.601280 1.466996
v 0.359162 0.601280 1.665042
v 0.359162 0.601280 1.466996
v -0.608459 0.601280 -1.457924
v -0.608459 0.601280 -1.670648
v 0.355831 0.601280 -1.457924
v 0.355831 0.601280 -1.670648
vt 0.994922 0.000031
vt 0.000032 0.501543
vt 0.000031 0.000031
vt 0.000057 0.496242
vt 0.990773 0.000057
vt 0.990773 0.496242
vt 0.000031 0.000031
vt 0.999969 0.496496
vt 0.000031 0.496496
vt 0.999943 0.494984
vt 0.000057 0.000057
vt 0.999943 0.000057
vt 0.000055 0.000055
vt 0.999945 0.488716
vt 0.000055 0.488716
vt 0.000055 0.000055
vt 0.999945 0.493990
vt 0.000055 0.493990
vt 0.000060 0.487272
vt 0.999940 0.000060
vt 0.999940 0.487272
vt 0.000061 0.000061
vt 0.999939 0.497025
vt 0.000061 0.497025
vt 0.651970 0.000081
vt 0.000081 0.475917
vt 0.000081 0.000081
vt 0.016527 0.488326
vt 0.988974 0.000062
vt 0.988974 0.488326
vt 0.000000 0.000000
vt 0.000000 0.000000
vt 0.000000 0.000000
vt 0.000082 0.467428
vt 0.663695 0.000081
vt 0.663695 0.493581
vt 0.000081 0.457991
vt 0.660005 0.000081
vt 0.660005 0.496219
vt 0.940608 0.560398
vt 0.109508 0.610351
vt 0.092843 0.560399
vt 0.640870 0.493582
vt 0.000080 0.066192
vt 0.640870 0.000080
vt 0.999938 0.000062
vt 0.000062 0.485886
vt 0.000062 0.000063
vt 0.000047 0.499482
vt 0.097784 0.167964
vt 0.097784 0.331565
vt 0.995462 0.496252
vt 0.000048 0.000048
vt 0.995462 0.000048
vt 0.996545 0.488321
vt 0.005675 0.007487
vt 0.989341 0.003080
vt 0.990990 0.490466
vt 0.000047 0.000046
vt 0.990990 0.000046
vt 0.002217 0.488272
vt 0.999932 0.002323
vt 0.999932 0.488272
vt 0.999979 0.000021
vt 0.000021 0.492834
vt 0.000021 0.000021
vt 0.974075 0.213552
vt 0.054296 0.271257
vt 0.026480 0.213552
vt 0.112504 0.490650
vt 0.000047 0.167964
vt 0.112504 0.000047
vt 0.989960 0.186677
vt 0.015993 0.301076
vt 0.001763 0.186676
vt 0.999955 0.992006
vt 0.000045 0.501505
vt 0.999955 0.501505
vt 0.991781 0.501507
vt 0.000047 0.999953
vt 0.000047 0.501507
vt 0.974386 0.627261
vt -0.002625 0.593364
vt 0.997338 0.593364
vt 0.873032 0.764899
vt 0.043193 0.670805
vt 0.940303 0.670805
vt 0.953497 0.532781
vt 0.062493 0.573201
vt 0.044627 0.532781
vt 0.856533 0.618079
vt 0.190636 0.699868
vt 0.113085 0.618079
vt 0.951713 0.645971
vt 0.020061 0.577769
vt 0.973599 0.577770
vt 0.000000 0.000000
vt 0.000000 0.000000
vt 0.000000 0.000000
vt 0.994922 0.501543
vt 0.000057 0.000057
vt 0.999969 0.000031
vt 0.000057 0.494984
vt 0.999945 0.000055
vt 0.999939 0.000061
vt 0.651971 0.493582
vt 0.000062 0.000062
vt 0.000000 0.000000
vt 0.000081 0.000082
vt 0.004621 0.000081
vt 0.923944 0.610351
vt 0.004489 0.493582
vt 0.999938 0.497165
vt 0.000047 0.000047
vt 0.000048 0.496252
vt 0.000068 0.490582
vt 0.000046 0.490979
vt 0.000068 0.000068
vt 0.999979 0.492834
vt 0.951380 0.271113
vt 0.000047 0.322733
vt 0.978350 0.301034
vt 0.000045 0.992006
vt 0.991780 0.999953
vt 0.020327 0.627261
vt 0.110463 0.764899
vt 0.935631 0.573201
vt 0.778982 0.699868
vt 0.041948 0.645970
vt 0.000000 0.000000
vn -1.0000 0.0000 0.0000
vn 0.0000 0.0000 -1.0000
vn 1.0000 0.0000 0.0000
vn 0.0000 0.0000 1.0000
vn 0.0000 -1.0000 0.0000
vn 0.0000 1.0000 0.0000
vn 0.0000 0.0047 -1.0000
vn -0.8219 0.5697 0.0000
vn 0.0000 0.6733 -0.7393
vn 0.0000 0.8027 -0.5964
vn 0.9874 0.1585 0.0000
vn 0.0000 0.0024 -1.0000
vn -0.6130 0.7901 0.0000
vn 0.0000 0.8027 0.5964
vn 0.6130 0.7901 0.0000
vn 0.0000 0.5477 -0.8366
vn 0.7773 0.6291 0.0000
vn 0.0000 0.6733 0.7393
vn 0.8219 0.5697 0.0000
vn 0.0000 0.5477 0.8366
vn -0.7773 0.6291 0.0000
vn 0.0051 0.0008 -1.0000
s off
f 2/1/1 3/2/1 1/3/1
f 4/4/2 7/5/2 3/6/2
f 8/7/3 5/8/3 7/9/3
f 6/10/4 1/11/4 5/12/4
f 7/13/5 1/14/5 3/15/5
f 4/16/6 6/17/6 8/18/6
f 20/19/7 4/20/7 19/21/7
f 13/22/2 16/23/2 15/24/2
f 12/25/3 16/26/3 14/27/3
f 9/28/4 12/29/4 11/30/4
f 11/31/8 41/32/8 13/33/8
f 9/34/1 13/35/1 15/36/1
f 8/37/3 18/38/3 22/39/3
f 13/40/9 43/41/9 14/42/9
f 17/43/1 4/44/1 21/45/1
f 17/46/4 22/47/4 18/48/4
f 33/49/10 38/50/10 39/51/10
f 35/52/11 32/53/11 34/54/11
f 33/55/12 4/56/12 31/57/12
f 31/58/1 9/59/1 30/60/1
f 9/61/4 32/62/4 30/63/4
f 39/64/6 36/65/6 37/66/6
f 30/67/13 38/68/13 31/69/13
f 32/70/14 36/71/14 30/72/14
f 33/73/15 37/74/15 32/75/15
f 40/76/6 43/77/6 41/78/6
f 44/79/6 47/80/6 45/81/6
f 45/82/16 20/83/16 19/84/16
f 47/85/17 18/86/17 20/87/17
f 12/88/18 40/89/18 11/90/18
f 14/91/19 42/92/19 12/93/19
f 46/94/20 17/95/20 18/96/20
f 44/97/21 19/98/21 17/99/21
f 2/1/1 4/100/1 3/2/1
f 4/4/2 8/101/2 7/5/2
f 8/7/3 6/102/3 5/8/3
f 6/10/4 2/103/4 1/11/4
f 7/13/5 5/12/5 1/14/5
f 4/16/6 2/104/6 6/17/6
f 20/19/7 8/101/7 4/20/7
f 13/22/2 14/105/2 16/23/2
f 12/25/3 10/106/3 16/26/3
f 9/28/4 10/107/4 12/29/4
f 11/31/8 40/108/8 41/32/8
f 9/34/1 11/109/1 13/35/1
f 8/37/3 20/110/3 18/38/3
f 13/40/9 41/111/9 43/41/9
f 17/43/1 19/112/1 4/44/1
f 17/46/4 21/113/4 22/47/4
f 33/49/10 31/114/10 38/50/10
f 35/52/11 33/115/11 32/53/11
f 33/55/22 35/116/22 4/56/22
f 31/58/1 4/117/1 9/59/1
f 9/61/4 34/118/4 32/62/4
f 39/64/6 38/119/6 36/65/6
f 30/67/13 36/120/13 38/68/13
f 32/70/14 37/121/14 36/71/14
f 33/73/15 39/122/15 37/74/15
f 40/76/6 42/123/6 43/77/6
f 44/79/6 46/124/6 47/80/6
f 45/82/16 47/125/16 20/83/16
f 47/85/17 46/126/17 18/86/17
f 12/88/18 42/127/18 40/89/18
f 14/91/19 43/128/19 42/92/19
f 46/94/20 44/129/20 17/95/20
f 44/97/21 45/130/21 19/98/21
l 2 9
l 6 10
l 19 23
l 11 24
l 23 25
l 24 26
l 25 27
l 26 28
l 27 29
l 28 30
l 29 31
o Cube.001_Cube.003
v -0.307362 -0.015320 1.420270
v -0.307362 0.258764 1.420270
v -0.307362 -0.015320 -1.420270
v -0.307362 0.258764 -1.420270
v 0.334010 -0.015320 1.420270
v 0.334010 0.258764 1.420270
v 0.334010 -0.015320 -1.420270
v 0.334010 0.258764 -1.420270
v -0.275224 0.292524 1.379248
v -0.275224 0.292524 -1.379248
v 0.301872 0.292524 -1.379248
v 0.301872 0.292524 1.379248
vt 0.625000 0.000000
vt 0.375000 0.250000
vt 0.375000 0.000000
vt 0.000065 0.496519
vt 0.986700 0.000065
vt 0.986700 0.496519
vt 0.000031 0.490666
vt 0.988532 0.000031
vt 0.988532 0.490666
vt 0.000065 0.490632
vt 0.998476 0.000065
vt 0.998476 0.490632
vt 0.375000 0.500000
vt 0.125000 0.750000
vt 0.125000 0.500000
vt 0.992970 0.496287
vt 0.000013 0.015153
vt 0.992970 0.000013
vt 0.997062 0.007864
vt -0.000256 0.495710
vt -0.000256 0.007864
vt 0.491620 0.490997
vt 0.000029 0.050134
vt 0.491620 0.000029
vt 0.994204 0.002106
vt -0.003966 0.500000
vt 0.996842 0.500000
vt 0.992970 0.493649
vt 0.000013 0.015153
vt 0.992970 0.000013
vt 0.625000 0.250000
vt 0.000065 0.000065
vt 0.000032 0.000031
vt 0.000065 0.000065
vt 0.375000 0.750000
vt 0.000025 0.481869
vt 0.997062 0.495710
vt 0.000029 0.440891
vt -0.002647 0.002106
vt 0.000025 0.479232
vn -1.0000 0.0000 0.0000
vn 0.0000 0.0000 -1.0000
vn 1.0000 0.0000 0.0000
vn 0.0000 0.0000 1.0000
vn 0.0000 -1.0000 0.0000
vn -0.7243 0.6895 0.0000
vn 0.0000 1.0000 0.0000
vn 0.0000 0.7721 0.6354
vn 0.0000 0.7721 -0.6354
vn 0.7243 0.6895 0.0000
s off
f 49/131/23 50/132/23 48/133/23
f 51/134/24 54/135/24 50/136/24
f 55/137/25 52/138/25 54/139/25
f 53/140/26 48/141/26 52/142/26
f 54/143/27 48/144/27 50/145/27
f 49/146/28 57/147/28 51/148/28
f 57/149/29 59/150/29 58/151/29
f 53/152/30 56/153/30 49/154/30
f 51/155/31 58/156/31 55/157/31
f 55/158/32 59/159/32 53/160/32
f 49/131/23 51/161/23 50/132/23
f 51/134/24 55/162/24 54/135/24
f 55/137/25 53/163/25 52/138/25
f 53/140/26 49/164/26 48/141/26
f 54/143/27 52/165/27 48/144/27
f 49/146/28 56/166/28 57/147/28
f 57/149/29 56/167/29 59/150/29
f 53/152/30 59/168/30 56/153/30
f 51/155/31 57/169/31 58/156/31
f 55/158/32 58/170/32 59/159/32
